<svg width="100" height="100" viewBox="0 0 100 100" fill="none" xmlns="http://www.w3.org/2000/svg">
<path d="M50 50C55.858 50 61.233 47.683 65.135 43.475C68.917 39.4 71 33.9 71 28C71 22.1 68.917 16.6 65.135 12.525C61.233 8.317 55.858 6 50 6C44.142 6 38.767 8.317 34.865 12.525C31.083 16.6 29 22.1 29 28C29 33.9 31.083 39.4 34.865 43.475C38.767 47.683 44.142 50 50 50ZM39.265 16.605C42.018 13.635 45.831 12 50 12C54.169 12 57.982 13.635 60.735 16.605C63.488 19.575 65 23.618 65 28C65 32.382 63.485 36.429 60.735 39.4C57.985 42.371 54.169 44 50 44C45.831 44 42.018 42.365 39.265 39.4C36.512 36.435 35 32.382 35 28C35 23.618 36.515 19.571 39.265 16.605Z" fill="#6c757d"/>
<path d="M85.3463 65.8866L85.3463 65.8865C80.6977 60.4081 72.3671 55.421 65.2773 51.3017C64.0295 50.5765 62.5291 50.2543 60.8316 51.1599L60.8315 51.1599C58.3054 52.5089 55.2157 53.701 50 53.701C44.7842 53.701 41.6945 52.5098 39.1687 51.16L39.1687 51.16L39.1674 51.1594C37.4712 50.2589 35.9715 50.5759 34.7227 51.3017C27.633 55.421 19.3023 60.4071 14.6537 65.8865L14.6537 65.8866C9.78588 71.625 7.5 78.6202 7.5 87.9V98V98.5H8H92H92.5V98V87.9C92.5 78.6202 90.2141 71.625 85.3463 65.8866ZM19.9739 70.4341L19.9739 70.4341C21.7776 68.3262 25.6079 65.4484 29.2899 62.9183C32.7131 60.5661 35.9535 58.5507 37.1835 57.7968C40.9799 59.5364 45.9692 60.1 50 60.1C54.0308 60.1 59.0201 59.5364 62.8165 57.7968C64.0464 58.5507 67.2864 60.5661 70.7093 62.9186C74.391 65.4489 78.2214 68.3272 80.0261 70.4361C83.7964 74.8417 85.5 80.2009 85.5 87.9V91.7H14.5V87.9C14.5 80.1989 16.2036 74.8397 19.9739 70.4341Z" fill="#6c757d"/></svg>